<svg width="38" height="44" viewBox="0 0 38 44" fill="none" xmlns="http://www.w3.org/2000/svg">
<path fill-rule="evenodd" clip-rule="evenodd" d="M17.8449 21.289H24.3479C24.2917 21.9794 23.5567 23.3654 23.2351 23.8909C20.6013 28.1981 18.0287 22.7265 17.8449 21.289ZM24.2611 25.0141C24.9808 23.6436 24.9502 23.9321 25.5831 22.3555C25.7159 22.0155 25.7822 21.6033 25.9353 21.289H29.4523C29.2685 21.5621 29.2277 21.6342 28.9929 21.8867C28.7581 22.134 28.7121 22.2937 28.462 22.5049C27.2727 23.5199 25.8792 24.6328 24.2662 25.0141H24.2611ZM12.7457 21.289H16.2626L16.967 23.2417C17.2528 23.8806 17.6152 24.4061 17.9317 25.0192C16.2268 24.6173 14.9201 23.4581 13.7869 22.5513L12.7457 21.2942V21.289ZM16.967 16.2295V15.6061H25.2309C25.2309 17.9761 24.8073 19.2384 24.792 19.867H17.4059C17.3957 19.3775 16.967 17.7958 16.967 16.2295ZM30.417 19.867H26.2875C26.2926 19.5682 26.3998 19.1045 26.4407 18.8675C26.507 18.4707 26.5223 18.275 26.5785 17.8576C26.6704 17.193 26.7265 16.4253 26.7265 15.6113H31.5604C31.5604 17.7443 30.5395 19.3518 30.417 19.8721V19.867ZM10.6375 15.6061H15.4714C15.4714 16.6675 15.5786 17.7752 15.747 18.7902C15.7981 19.0839 15.9053 19.5424 15.9104 19.867H11.7809C11.6533 19.3209 10.6375 17.8473 10.6375 15.6061ZM16.967 13.5658C16.967 11.9841 17.3957 10.4281 17.4059 9.92835H24.792C24.8073 10.5415 25.2309 11.8347 25.2309 14.1892H16.967V13.5658ZM26.2824 9.92835H30.4119C30.4884 10.2684 30.8866 10.8764 31.152 11.8398C31.3613 12.5869 31.5553 13.2721 31.5553 14.1841H26.7214C26.7214 12.015 26.3029 10.7321 26.2824 9.9232V9.92835ZM15.4714 14.1892H10.6375C10.6375 13.3597 10.8213 12.5817 11.0051 11.9017C11.2348 11.0361 11.6993 10.2839 11.7809 9.93351H15.9104C15.895 10.6291 15.4714 12.1077 15.4714 14.1944V14.1892ZM24.3479 8.51149H17.8449C17.9368 7.40376 20.4686 1.53023 23.2045 5.85294C23.5261 6.35786 24.2917 7.81079 24.353 8.51149H24.3479ZM16.2626 8.51149H12.7457L13.7359 7.29557C13.986 7.08433 14.0575 7.04311 14.3025 6.80611C14.5016 6.61032 14.7313 6.44545 14.9405 6.29604C15.65 5.79112 16.9721 5.01313 17.9266 4.78643L16.9874 6.50212C16.6658 7.19767 16.3544 8.3054 16.2575 8.51149H16.2626ZM24.2611 4.78643C24.6746 4.88433 25.4811 5.22437 25.8384 5.415C26.2926 5.65201 26.7571 5.95599 27.1961 6.25997C28.0945 6.88339 28.3395 7.21828 28.9418 7.87262C29.197 8.15084 29.243 8.20751 29.4471 8.51664H25.9302L25.2258 6.56395C24.9349 5.90447 24.5776 5.3944 24.2611 4.78643ZM9.14197 14.282C9.14197 16.8426 9.26447 17.7134 10.2598 20.0731C10.4181 20.4492 10.5661 20.6398 10.7549 20.9953C10.9285 21.3199 11.0969 21.5569 11.3062 21.8609C11.7248 22.474 12.128 22.9326 12.6385 23.4426C14.6394 25.4623 17.6101 26.9719 20.4839 26.9719C23.3934 26.9719 24.6848 26.6834 27.1349 25.3438C30.4119 23.5508 33.0559 19.326 33.0559 15.5237C33.0559 12.5869 32.7701 11.2834 31.443 8.81032C31.2694 8.48573 31.101 8.24873 30.8917 7.94475C30.4935 7.36255 30.0444 6.85248 29.5594 6.36301C29.0847 5.88386 28.5794 5.44077 28.0434 5.05435C26.3131 3.82297 23.9242 2.83374 21.714 2.83374C18.8045 2.83374 17.5131 3.12226 15.063 4.46184C14.7415 4.63702 14.5067 4.80704 14.2055 5.01828C13.1693 5.7396 12.0617 6.86793 11.342 7.89323C10.1526 9.59861 9.14197 11.9738 9.14197 14.282Z" fill="white"/>
<path fill-rule="evenodd" clip-rule="evenodd" d="M1.40881 32.6447H9.84633V42.5834H1.40881V32.6447ZM25.5831 41.1613H11.2551V34.7726C14.0217 34.7726 12.618 34.7159 15.2621 32.959C17.4008 31.5421 20.1878 31.6709 22.2806 33.0466C24.7409 34.6695 22.7451 33.8297 25.9353 34.0616C27.3288 34.1646 27.4309 35.1281 27.4309 36.1894H21.1015V37.6115H28.1353C28.6355 37.6115 29.7432 36.2976 30.2689 35.7721L34.2656 31.7328C34.6178 31.3824 35.0874 31.1248 35.6795 31.3257C36.0573 31.4545 36.5728 31.9749 36.5728 32.4695C36.5728 33.1445 36.0317 33.5927 35.6693 33.9534L31.9789 37.6784C30.274 39.3993 28.9673 41.1613 25.5831 41.1613ZM28.855 35.1487C28.6406 34.2986 28.5487 34.2471 28.217 33.6185C28.5487 33.1187 29.7534 32.0213 30.2587 31.5112C30.7283 31.0372 31.7134 29.7389 32.6986 31.2227L28.855 35.1487ZM26.9664 32.7993C26.4406 32.5571 25.7515 32.6447 24.9655 32.6447C25.2513 32.2171 26.1037 31.4545 26.5223 31.0218C26.803 30.7332 27.0634 30.4911 27.5585 30.5632C28.0434 30.6302 28.2782 30.9136 28.4824 31.2227L26.9664 32.7993ZM23.4699 32.1089C22.7604 31.6297 22.4439 31.3927 21.5506 31.0269C18.8198 29.9192 15.7827 30.5684 13.5113 32.4335C12.2199 33.4897 12.6486 33.3506 11.2551 33.3506C11.2551 32.2841 11.4695 31.2227 10.5507 31.2227H0.704403C0.28074 31.2227 0 31.5009 0 31.9337V43.2892C0 43.7168 0.275636 44.0002 0.704403 44.0002H10.5507C11.3878 44.0002 11.2551 43.1656 11.2551 42.5782H26.3743C29.5237 42.5782 31.351 40.3524 33.0763 38.6058L37.0322 34.6129C39.2169 32.4232 37.2466 29.8007 35.603 29.8007C34.6229 29.8007 34.6587 29.7595 33.7552 30.2438C33.0151 29.1257 31.494 28.7445 30.3914 29.4246C30.0341 29.6461 29.8555 29.9398 29.5339 30.1562C29.0439 29.8264 28.7019 29.0897 27.4258 29.0897C26.2671 29.0897 25.8026 29.7079 25.2054 30.3108C24.7613 30.759 23.7659 31.6606 23.4699 32.1089Z" fill="white"/>
<path fill-rule="evenodd" clip-rule="evenodd" d="M21.0963 1.41686C22.7808 1.41686 25.1288 1.92178 26.5784 2.62763C29.7227 4.15785 31.744 6.19813 33.26 9.3719C33.9593 10.8403 34.4596 13.2052 34.4596 14.9054H35.8684C35.8684 8.88759 32.5505 4.02904 27.4308 1.41686C25.629 0.499766 23.5311 0 21.1014 0V1.42201L21.0963 1.41686Z" fill="white"/>
<path fill-rule="evenodd" clip-rule="evenodd" d="M6.32945 15.5236C6.32945 17.4711 7.04406 19.903 7.70762 21.2323C9.34102 24.4988 11.4134 26.6782 14.767 28.3887C16.5382 29.2903 18.7024 29.8056 21.0964 29.8056V28.3835C13.8584 28.3835 7.73315 22.3091 7.73315 14.895H6.32434V15.5184L6.32945 15.5236Z" fill="white"/>
</svg>
