<svg width="39" height="37" viewBox="0 0 39 37" fill="none" xmlns="http://www.w3.org/2000/svg">
<path fill-rule="evenodd" clip-rule="evenodd" d="M1.26115 30.0402V24.8095C1.26115 24.334 3.22524 23.0109 3.70076 22.7007C4.73449 22.0598 6.01632 21.667 7.52556 21.667C9.20021 21.667 12.074 22.8248 13.5005 23.5277C13.8727 23.7138 14.1621 23.8585 14.5136 24.0653C17.5321 25.8846 18.3591 25.6779 22.3079 25.6779C24.272 25.6779 27.0011 25.161 27.0011 27.2492C27.0011 28.7171 25.6779 28.8204 24.6855 28.8204H16.9325C16.0228 28.8204 14.2241 29.1305 13.6453 29.42C13.728 29.7921 13.9967 30.309 14.0174 30.6191C14.2655 30.5984 14.617 30.4744 14.8444 30.4124C17.8215 29.6681 24.6235 30.433 26.1534 30.0196C27.1458 29.7508 27.9934 28.9445 28.2209 27.828C28.4896 26.4842 28.1175 27.5179 28.9445 26.4428C29.2546 26.05 29.6267 25.6986 29.9369 25.2851L33.8857 20.716C34.1958 20.3438 34.568 19.9717 34.9815 19.7236C35.5604 19.3928 35.8084 19.2894 36.5527 19.124C36.47 19.2894 36.3873 19.4962 36.3046 19.7029C36.2013 19.951 36.1186 20.1164 36.0359 20.3232L34.9608 22.7628C34.2372 24.272 32.8727 27.766 32.2317 28.9031C31.0119 31.074 29.6267 32.0457 27.1665 32.6452C26.5669 32.79 23.9826 33.865 23.3003 34.1545C18.1316 36.2219 16.9325 35.0435 12.3428 33.1414C9.28291 31.8596 8.10445 31.1153 4.48639 30.4124C3.82481 30.2883 1.96409 30.0402 1.26115 30.0402ZM24.8509 16.3743C23.3003 16.3743 23.6931 16.2089 22.9902 16.1469C23.0522 15.4439 24.7062 13.7073 25.5332 13.1077C26.6289 12.3014 25.864 11.7432 25.4505 11.7432C25.0783 11.7432 24.6235 12.1774 24.3547 12.3634C23.8172 12.7769 23.0729 13.5832 22.6801 14.1208L21.9358 15.0925C21.9358 14.6376 21.8531 14.5549 21.8531 14.1208C21.8531 10.5854 24.5821 9.63437 28.1175 9.63437C28.1175 10.42 28.0141 11.247 27.9107 11.8879C27.6833 13.2318 27.3732 14.4102 26.5255 15.4853C26.2361 15.8368 25.4298 16.333 24.8302 16.333L24.8509 16.3743ZM10.1512 1.3025C12.8803 1.3025 18.111 1.94341 17.7182 5.64417C17.6561 6.32643 17.5114 6.57453 17.3874 7.11207C16.3123 5.87159 15.6093 5.06528 13.976 4.25897C13.7693 4.1556 13.4799 3.96953 13.2318 4.01088C12.8596 4.0729 12.6942 4.321 12.6942 4.65179C12.6942 5.33405 13.6039 5.31338 14.7203 6.20239C15.3819 6.73993 16.0228 7.36017 16.4984 8.08378C15.1752 8.18715 14.0174 8.51795 12.5081 7.60826C11.309 6.88465 10.6474 5.35473 10.3993 3.96953C10.2546 3.10119 10.2753 2.17084 10.1719 1.28183L10.1512 1.3025ZM8.89009 0.930358C8.89009 3.36996 9.11751 5.35473 10.1512 6.98802C10.2546 7.15342 10.358 7.33949 10.482 7.46354C11.1643 8.26985 11.9086 8.93144 13.025 9.24156C14.0587 9.55168 14.5136 9.48965 15.5266 9.48965C16.2089 9.48965 16.6637 9.28291 17.2426 9.26223C18.7726 12.136 19.4755 15.9195 19.4755 20.3025C19.4755 21.0674 19.3928 21.6257 19.3928 22.3079C19.3928 23.0936 19.2481 23.5897 19.2481 24.3134C17.1393 24.3134 16.395 23.5277 14.803 22.7214C11.8259 21.2122 8.00108 19.4962 4.50707 20.84C3.84548 21.1088 3.28727 21.3776 2.70838 21.729C2.10881 22.1012 0 23.7551 0 24.4581V30.6605C0 31.1567 0.723612 31.1773 0.930358 31.2187C1.44722 31.2807 1.84004 31.2807 2.35691 31.3634C7.05005 31.9423 9.67572 33.3275 14.0174 35.2296C15.7747 35.9945 16.9532 36.4907 19.1034 36.4907C21.4603 36.4907 24.0032 35.2296 26.2154 34.3405C28.2829 33.5136 29.2339 33.6583 31.074 32.2731C32.5212 31.198 33.3068 29.8335 33.9891 28.1795L37.8966 19.2481C38.062 18.8966 38.186 18.7932 38.186 18.2764C38.186 17.3047 35.3743 17.7802 33.9684 18.8346C33.4722 19.2067 33.2861 19.4548 32.8727 19.9097L31.3841 21.6257C31.26 21.7704 31.2807 21.7911 31.1567 21.9151L28.655 24.7889C28.5517 24.8922 28.4896 24.9336 28.3863 25.0576L27.8901 25.6779C27.5386 25.4298 27.3525 25.099 26.939 24.8302C26.5876 24.6028 26.112 24.3961 25.5745 24.3961H20.5713C20.5713 22.7628 20.7987 21.9978 21.1088 20.5299C21.3569 19.2687 22.1425 17.5734 22.2252 17.2426C22.5147 17.2633 22.7421 17.3874 22.9902 17.4494C24.8302 17.9456 26.7323 17.5734 27.8074 15.9401C29.1512 13.914 29.3993 11.7018 29.3993 9.17953C29.3993 8.20783 28.5723 8.35255 27.766 8.35255C25.8019 8.35255 23.8792 8.76604 22.7628 9.6137C20.6126 11.2056 20.2405 13.4799 20.8814 16.0022C21.0261 16.5397 21.1501 16.5397 21.0674 16.7878L20.8193 17.3667C20.7366 17.5114 20.7573 17.4701 20.6953 17.5321C20.6953 17.2013 20.6333 17.0152 20.6126 16.6431C20.5092 14.9064 19.9303 12.5495 19.4135 10.9782C19.3308 10.7301 19.2687 10.5234 19.1654 10.2546L18.5658 8.91076C18.235 8.29052 18.1937 8.55929 18.4418 8.02175L18.8139 6.90532C19.3101 4.87921 19.0413 3.08052 17.3253 1.79869C16.9739 1.52992 16.7051 1.34385 16.2709 1.1371C14.3689 0.186072 12.074 0 9.65505 0C9.13818 0 8.91076 0.372143 8.91076 0.889009L8.89009 0.930358Z" fill="white"/>
</svg>
